<svg width="80" height="80" viewBox="0 0 80 80" fill="none" xmlns="http://www.w3.org/2000/svg">
<path fill-rule="evenodd" clip-rule="evenodd" d="M56.4825 12.3863V16.7931C56.4825 17.4371 56.3259 18.0446 56.0487 18.5796C55.4014 19.8293 54.0961 20.6836 52.5918 20.6837H27.4073C25.903 20.6836 24.5982 19.8293 23.9511 18.5796C23.6741 18.0446 23.5176 17.4371 23.5176 16.7931V12.3863H18.083C11.4556 12.3863 6.08301 17.7589 6.08301 24.3863V68.0001C6.08301 74.6275 11.4556 80.0001 18.083 80.0001H61.9168C68.5442 80.0001 73.9168 74.6275 73.9168 68.0001V24.3863C73.9168 17.7589 68.5442 12.3863 61.9168 12.3863H56.4825Z" fill="#80CAFF"/>
<path fill-rule="evenodd" clip-rule="evenodd" d="M27.4073 20.6837C25.903 20.6836 24.5982 19.8293 23.9511 18.5796H20.2967C15.8784 18.5796 12.2967 22.1613 12.2967 26.5796V65.8069C12.2967 70.2252 15.8784 73.8069 20.2967 73.8069H59.7037C64.122 73.8069 67.7037 70.2252 67.7037 65.8069V26.5796C67.7037 22.1613 64.122 18.5796 59.7037 18.5796H56.0487C55.4014 19.8293 54.0961 20.6836 52.5918 20.6837H27.4073Z" fill="white"/>
<path fill-rule="evenodd" clip-rule="evenodd" d="M30.82 29.2006C31.3286 28.6925 32.1515 28.6923 32.6599 29.2006C33.1682 29.709 33.168 30.5319 32.6599 31.0404L26.781 36.9203C26.2724 37.4287 25.4486 37.4288 24.9401 36.9203L22.6179 34.5971C22.1094 34.0886 22.1095 33.2657 22.6179 32.7572C23.1264 32.249 23.9493 32.2489 24.4577 32.7572L25.8581 34.1566L30.82 29.2006Z" fill="#8A96A8"/>
<path fill-rule="evenodd" clip-rule="evenodd" d="M30.82 42.5371C31.3286 42.029 32.1515 42.0288 32.6599 42.5371C33.1682 43.0455 33.168 43.8684 32.6599 44.377L26.781 50.2569C26.2724 50.7652 25.4486 50.7653 24.9401 50.2569L22.6179 47.9336C22.1094 47.4251 22.1095 46.6023 22.6179 46.0938C23.1264 45.5856 23.9493 45.5854 24.4577 46.0938L25.8581 47.4932L30.82 42.5371Z" fill="#8A96A8"/>
<path fill-rule="evenodd" clip-rule="evenodd" d="M30.82 55.8736C31.3286 55.3656 32.1515 55.3653 32.6599 55.8736C33.1682 56.382 33.168 57.2049 32.6599 57.7135L26.781 63.5934C26.2724 64.1018 25.4486 64.1018 24.9401 63.5934L22.6179 61.2701C22.1094 60.7617 22.1095 59.9388 22.6179 59.4303C23.1264 58.9221 23.9493 58.9219 24.4577 59.4303L25.8581 60.8297L30.82 55.8736Z" fill="#8A96A8"/>
<path d="M57.0342 31.4884C57.8119 31.4884 58.4424 32.119 58.4424 32.8966C58.4424 33.6742 57.8119 34.3048 57.0342 34.3048H38.3008C37.5232 34.3048 36.8926 33.6742 36.8926 32.8966C36.8926 32.119 37.5232 31.4884 38.3008 31.4884H57.0342Z" fill="#8A96A8"/>
<path d="M57.0342 44.8249C57.8119 44.8249 58.4424 45.4555 58.4424 46.2331C58.4424 47.0107 57.8119 47.6413 57.0342 47.6413H38.3008C37.5232 47.6413 36.8926 47.0107 36.8926 46.2331C36.8926 45.4555 37.5232 44.8249 38.3008 44.8249H57.0342Z" fill="#8A96A8"/>
<path d="M57.0342 58.1614C57.8119 58.1614 58.4424 58.7919 58.4424 59.5696C58.4424 60.3472 57.8119 60.9778 57.0342 60.9778H38.3008C37.5232 60.9778 36.8926 60.3472 36.8926 59.5696C36.8926 58.7919 37.5232 58.1614 38.3008 58.1614H57.0342Z" fill="#8A96A8"/>
<path fill-rule="evenodd" clip-rule="evenodd" d="M47.7364 7.80872C47.7364 7.80103 47.737 7.79334 47.7372 7.78565C47.7372 7.78871 47.7374 7.7826 47.7372 7.78565C47.737 7.79029 47.7364 7.80408 47.7364 7.80872Z" fill="#707C8F"/>
<path fill-rule="evenodd" clip-rule="evenodd" d="M56.4825 12.3863V11.6984C56.4822 9.55022 54.74 7.80891 52.5918 7.80872H47.7364C47.7364 7.80103 47.737 7.79334 47.7372 7.78565C47.7372 7.78741 47.7373 7.7839 47.7372 7.78565C47.7372 3.48889 44.2538 0.000319982 39.9571 0.00012207C35.6602 0.000204278 32.1768 3.48356 32.1768 7.7804C32.1768 7.78521 32.177 7.79002 32.1773 7.79482C32.1775 7.79946 32.1777 7.80409 32.1778 7.80872H27.4073C25.2591 7.80892 23.5178 9.55022 23.5176 11.6984V12.3863V16.7931C23.5176 17.4371 23.6741 18.0446 23.9511 18.5796C24.5982 19.8293 25.903 20.6836 27.4073 20.6837H52.5918C54.0961 20.6836 55.4014 19.8293 56.0487 18.5796C56.3259 18.0446 56.4825 17.4371 56.4825 16.7931V12.3863ZM37.1905 6.77551C37.1905 5.22427 38.4478 3.967 39.9991 3.96692C41.5504 3.96692 42.8085 5.22422 42.8086 6.77551C42.8086 8.32688 41.5504 9.58508 39.9991 9.58508C38.4478 9.585 37.1905 8.32683 37.1905 6.77551Z" fill="#707C8F"/>
</svg>
