<svg preserveAspectRatio="none" width="100%" height="100%" overflow="visible" style="display: block;" viewBox="0 0 37.97 44.4" fill="none" xmlns="http://www.w3.org/2000/svg">
<g id="Vector">
<path fill-rule="evenodd" clip-rule="evenodd" d="M29.4913 3.97707C29.4913 1.78059 31.3893 0 33.7307 0C36.072 0 37.97 1.78059 37.97 3.97707V35.4494C37.97 40.3927 33.6984 44.4 28.4291 44.4H9.54096C4.27163 44.4 0 40.3927 0 35.4494V3.97707C0 1.78059 1.89804 0 4.23939 0C6.51767 0 8.3762 1.68595 8.47468 3.80049C8.16517 2.82649 6.85728 2.88682 6.67144 3.98148C6.62689 4.24391 6.60369 4.51361 6.60369 4.78873V9.50368C6.60369 10.4923 7.40516 11.2938 8.39381 11.2938H9.48151C9.50123 11.2948 9.52105 11.2953 9.54096 11.2953L14.9501 11.2938H23.1382L28.4291 11.2953C28.449 11.2953 28.4688 11.2948 28.4885 11.2938H29.6945C30.6831 11.2938 31.4846 10.4923 31.4846 9.50368V4.78873C31.4846 4.51361 31.4614 4.24391 31.4168 3.98148C31.2201 2.82297 29.7667 2.82297 29.57 3.98148C29.5255 4.24391 29.5023 4.51361 29.5023 4.78873C29.5023 4.91693 29.4986 5.04427 29.4913 5.17064V3.97707Z" fill="#5C6575"/>
<path d="M8.47468 3.80049C8.16517 2.82649 6.85728 2.88682 6.67144 3.98148C6.62689 4.24391 6.60369 4.51361 6.60369 4.78873V9.50368C6.60369 10.4923 7.40516 11.2938 8.39381 11.2938H9.48151H14.9501C14.774 11.29 14.5997 11.2792 14.4273 11.2617C11.1463 10.9285 8.58598 8.15763 8.58598 4.78873C8.58598 4.51361 8.56278 4.24391 8.51823 3.98148C8.50739 3.91763 8.49273 3.8573 8.47468 3.80049Z" fill="#434A56"/>
<path d="M23.6609 11.2617C26.8171 10.9412 29.3064 8.36499 29.4913 5.17064C29.4986 5.04427 29.5023 4.91693 29.5023 4.78873C29.5023 4.51361 29.5255 4.24391 29.57 3.98148C29.7667 2.82297 31.2201 2.82297 31.4168 3.98148C31.4614 4.24391 31.4846 4.51361 31.4846 4.78873V9.50368C31.4846 10.4923 30.6831 11.2938 29.6945 11.2938H28.4885H23.1382C23.3142 11.29 23.4886 11.2792 23.6609 11.2617Z" fill="#434A56"/>
<path d="M28.1434 31.5488H25.4572C24.3934 31.5488 24.0742 31.1676 24.0742 30.1481V24.5363C24.0742 23.9424 24.5175 23.6321 24.9962 23.6321C25.475 23.6321 25.9182 23.9424 25.9182 24.5363V29.7403C25.9182 29.9531 25.9714 29.9974 26.1753 29.9974H28.1434C28.6665 29.9974 28.8615 30.3963 28.8615 30.7598C28.8615 31.1233 28.6576 31.5488 28.1434 31.5488Z" fill="var(--fill-0, white)"/>
<path d="M19.6124 31.6427C17.7898 31.6427 16.5045 30.684 16.5045 28.8193V24.8897C16.5045 23.0356 17.7898 22.0663 19.6124 22.0663C21.4349 22.0663 22.7202 23.0356 22.7202 24.8897V28.8193C22.7202 30.684 21.4349 31.6427 19.6124 31.6427ZM19.6124 29.8517C20.1391 29.8517 20.6027 29.5884 20.6027 28.9141V24.7949C20.6027 24.1417 20.1391 23.8573 19.6124 23.8573C19.0856 23.8573 18.6221 24.1417 18.6221 24.7949V28.9141C18.6221 29.5884 19.0856 29.8517 19.6124 29.8517Z" fill="var(--fill-0, white)"/>
<path d="M14.5428 26.628C15.0801 27.0178 15.4488 27.5973 15.4488 28.3874V29.1565C15.4488 30.8737 13.8896 31.6427 12.2778 31.6427C10.6659 31.6427 9.10671 30.8737 9.10671 29.1565V28.3874C9.10671 27.5867 9.4649 27.0178 10.0022 26.6175C9.55971 26.2593 9.26473 25.7747 9.26473 25.1426V24.5105C9.26473 22.7722 10.7396 22.0664 12.2778 22.0664C13.7843 22.0664 15.2908 22.7722 15.2908 24.5105V25.1426C15.2908 25.7747 14.9958 26.2699 14.5428 26.628ZM11.2875 24.5842V25.0478C11.2875 25.6272 11.6983 25.8695 12.2778 25.8695C12.8572 25.8695 13.2681 25.6272 13.2681 25.0478V24.5842C13.2681 24.0048 12.8572 23.7625 12.2778 23.7625C11.6983 23.7625 11.2875 24.0048 11.2875 24.5842ZM13.405 29.0511V28.3663C13.405 27.7869 12.9836 27.4814 12.2778 27.4814C11.5719 27.4814 11.1505 27.7869 11.1505 28.3663V29.0511C11.1505 29.6305 11.5719 29.9361 12.2778 29.9361C12.9836 29.9361 13.405 29.6305 13.405 29.0511Z" fill="var(--fill-0, white)"/>
</g>
</svg>
