<svg preserveAspectRatio="none" width="100%" height="100%" overflow="visible" style="display: block;" viewBox="0 0 50.5043 24.2293" fill="none" xmlns="http://www.w3.org/2000/svg">
<g id="Group">
<path id="Vector" d="M6.18878 3.7639V4.69943H0V3.7639H6.18878ZM5.591 1.76955C5.591 2.71233 4.55582 3.31426 3.07596 3.31426C1.5961 3.31426 0.560922 2.71233 0.560922 1.76955C0.560922 0.826767 1.5961 0.217584 3.07596 0.217584C4.55582 0.217584 5.591 0.826767 5.591 1.76955ZM1.77106 1.76955C1.77106 2.19743 2.25948 2.39324 3.07596 2.39324C3.89244 2.39324 4.38086 2.19743 4.38086 1.76955C4.38086 1.34167 3.89244 1.13861 3.07596 1.13861C2.25948 1.13861 1.77106 1.34167 1.77106 1.76955ZM3.65187 4.38033V6.82432H2.47818V4.38033H3.65187Z" fill="var(--fill-0, white)"/>
<path id="Vector_2" d="M10.315 0.551165V3.29249H8.25189V4.68491H7.05634V2.37871H9.11211V1.47944H7.04905V0.551165H10.315ZM7.68368 4.32955C8.93026 4.32955 9.87067 4.29329 10.884 4.11198L11.0006 5.04752C9.96544 5.24332 8.96671 5.27958 7.68368 5.27958H7.05674V4.32955H7.68368ZM12.4436 0V6.83115H11.2626V0H12.4436Z" fill="var(--fill-0, white)"/>
<path id="Vector_3" d="M19.6022 3.24899V4.17002H13.4134V3.24899H19.6022ZM15.2428 4.63416V5.99757H14.0618V4.63416H15.2428ZM18.968 5.75099V6.67927H14.0618V5.75099H18.968ZM15.3084 0.246588V2.19017H14.1347V0.246588H15.3084ZM18.9315 1.73328V2.65431H14.1347V1.73328H18.9315Z" fill="var(--fill-0, white)"/>
<path id="Vector_4" d="M3.39677 9.28997V10.211H1.4868V13.3294H0.31311V9.28997H3.39677ZM0.882133 12.9668C2.06311 12.9668 2.83584 12.9378 3.68877 12.7855L3.79812 13.7283C2.91603 13.8879 2.09956 13.9169 0.882133 13.9169H0.313515V12.9668H0.882133ZM5.12449 10.9942V11.937H3.10517V10.9942H5.12449ZM5.79517 8.7098V15.5409H4.62148V8.7098H5.79517Z" fill="var(--fill-0, white)"/>
<path id="Vector_5" d="M10.0889 9.34799V13.5833H8.91519V9.34799H10.0889ZM9.52795 12.9161C10.4829 12.9161 11.5546 12.8508 12.6408 12.6405L12.7574 13.5905C11.642 13.8226 10.5194 13.8806 9.52795 13.8806H8.91559V12.9161H9.52795ZM14.1567 8.70254V15.5047H12.9757V8.70254H14.1567ZM15.0315 11.2045V12.1618H13.8578V11.2045H15.0315Z" fill="var(--fill-0, white)"/>
<path id="Vector_6" d="M21.6362 12.1256V13.0466H15.4474V12.1256H21.6362ZM21.0603 10.3198C21.0603 11.2046 20.047 11.7485 18.5453 11.7485C17.0435 11.7485 16.0302 11.2046 16.0302 10.3198C16.0302 9.43504 17.0435 8.89838 18.5453 8.89838C20.047 8.89838 21.0603 9.44954 21.0603 10.3198ZM17.3424 13.4237V14.7944H16.1687V13.4237H17.3424ZM20.9364 14.4898V15.4181H16.1687V14.4898H20.9364ZM17.2477 10.3198C17.2477 10.6752 17.7069 10.8275 18.5453 10.8275C19.3836 10.8275 19.8429 10.6752 19.8429 10.3198C19.8429 9.96445 19.3836 9.8194 18.5453 9.8194C17.7069 9.8194 17.2477 9.9717 17.2477 10.3198Z" fill="var(--fill-0, white)"/>
<path id="Vector_7" d="M26.6881 9.84113V10.4213C26.6881 12.0603 26.1705 13.6485 24.7782 14.2577L24.1148 13.3367C25.3468 12.8 25.755 11.5599 25.755 10.4213V9.84113H26.6881ZM28.2628 9.34073V10.298H24.4137V9.34073H28.2628ZM26.9506 9.84113V10.4213C26.9506 11.4946 27.3515 12.6695 28.5689 13.1626L27.9347 14.0837C26.535 13.5035 26.0247 11.9878 26.0247 10.4213V9.84113H26.9506ZM29.9176 8.71705V15.5192H28.7366V8.71705H29.9176Z" fill="var(--fill-0, white)"/>
<path id="Vector_8" d="M37.0984 11.966V12.9015H30.9096V11.966H37.0984ZM35.8737 9.07965V10.0007H31.5799V9.07965H35.8737ZM34.5542 12.6332V15.5196H33.3659V12.6332H34.5542ZM36.4204 9.07965V9.68883C36.4204 10.4431 36.4204 11.2843 36.1507 12.5172L34.9989 12.3866C35.2613 11.2335 35.2613 10.4141 35.2613 9.68883V9.07965H36.4204Z" fill="var(--fill-0, white)"/>
<path id="Vector_9" d="M43.8049 11.7049V12.5389H37.6161V11.7049H43.8049ZM43.0904 12.771V14.4753H39.46V14.9394H38.2936V13.7573H41.9313V13.547H38.2864V12.771H43.0904ZM43.2654 14.7073V15.4833H38.2941V14.7073H43.2654ZM43.0759 8.78231V10.4938H39.5257V10.9507H38.3665V9.77585H41.9168V9.55829H38.3593V8.78231H43.0759ZM43.1998 10.7186V11.4946H38.3665V10.7186H43.1998Z" fill="var(--fill-0, white)"/>
<path id="Vector_10" d="M0.0364746 20.9368C1.18829 20.9368 2.85769 20.9223 4.27924 20.7048L4.35213 21.5533C2.90143 21.8506 1.31951 21.8651 0.167694 21.8724L0.0364746 20.9368ZM4.02368 19.1456C4.02368 20.0013 3.25094 20.625 2.20119 20.625C1.15143 20.625 0.385988 20.0013 0.385988 19.1456C0.385988 18.2898 1.15872 17.6589 2.20119 17.6589C3.24365 17.6589 4.02368 18.2753 4.02368 19.1456ZM1.50905 19.1456C1.50905 19.5082 1.80065 19.675 2.20159 19.675C2.60254 19.675 2.90143 19.5082 2.90143 19.1456C2.90143 18.7829 2.60983 18.6016 2.20159 18.6016C1.79336 18.6016 1.50905 18.7757 1.50905 19.1456ZM2.82084 21.2632V24.0118H1.63986V21.2632H2.82084ZM5.78785 17.4123V24.2144H4.61417V17.4123H5.78785Z" fill="var(--fill-0, white)"/>
<path id="Vector_11" d="M9.90661 18.3623V19.2833H6.69902V18.3623H9.90661ZM9.83371 21.1617C9.83371 22.1335 9.19948 22.8152 8.3174 22.8152C7.43531 22.8152 6.80108 22.1335 6.80108 21.1617C6.80108 20.1899 7.4426 19.5082 8.3174 19.5082C9.19219 19.5082 9.83371 20.1899 9.83371 21.1617ZM8.90059 17.5863V18.9497H7.74149V17.5863H8.90059ZM7.83626 21.1617C7.83626 21.6331 8.03309 21.8506 8.3174 21.8506C8.6017 21.8506 8.79853 21.6331 8.79853 21.1617C8.79853 20.6903 8.6017 20.4727 8.3174 20.4727C8.03309 20.4727 7.83626 20.6975 7.83626 21.1617ZM11.1824 17.5211V23.9533H10.0889V17.5211H11.1824ZM11.8749 20.1246V21.0601H10.8397V20.1246H11.8749ZM12.6258 17.4123V24.2144H11.5104V17.4123H12.6258Z" fill="var(--fill-0, white)"/>
<path id="Vector_12" d="M21.6435 22.5831V23.5186H15.4547V22.5831H21.6435ZM17.2914 17.8982V20.654H16.1104V17.8982H17.2914ZM21.0165 20.2552V21.1762H16.1108V20.2552H21.0165ZM19.1357 20.7991V22.8369H17.962V20.7991H19.1357Z" fill="var(--fill-0, white)"/>
<path id="Vector_13" d="M25.4342 17.7894V20.0521H23.568V21.2124H22.4016V19.1963H24.2678V18.7104H22.3943V17.7894H25.4342ZM22.9411 20.5815C24.1731 20.5815 24.8365 20.5597 25.5873 20.4219L25.704 21.343C24.9312 21.488 24.2168 21.5098 22.9411 21.5098H22.4016V20.5815H22.9411ZM27.9347 21.8941V24.2221H26.7537V22.8152H23.1889V21.8941H27.9343H27.9347ZM26.9578 18.3188V19.2471H25.7914V18.3188H26.9578ZM26.9578 19.791V20.712H25.7914V19.791H26.9578ZM27.9347 17.4195V21.6185H26.7537V17.4195H27.9347Z" fill="var(--fill-0, white)"/>
<path id="Vector_14" d="M32.7899 18.3768V19.2979H28.8314V18.3768H32.7899ZM32.5858 21.2414C32.5858 22.206 31.8276 22.8949 30.8143 22.8949C29.801 22.8949 29.0428 22.206 29.0428 21.2414C29.0428 20.2769 29.801 19.5879 30.8143 19.5879C31.8276 19.5879 32.5858 20.2769 32.5858 21.2414ZM30.1655 21.2414C30.1655 21.7128 30.4352 21.9521 30.8143 21.9521C31.1934 21.9521 31.4631 21.7128 31.4631 21.2414C31.4631 20.77 31.1934 20.5307 30.8143 20.5307C30.4352 20.5307 30.1655 20.77 30.1655 21.2414ZM31.4048 17.5428V18.7104H30.2238V17.5428H31.4048ZM34.2843 17.4195V24.2217H33.1106V17.4195H34.2843ZM35.1956 19.9941V20.9586H34.0219V19.9941H35.1956Z" fill="var(--fill-0, white)"/>
<path id="Vector_15" d="M41.7638 20.654V21.5751H35.575V20.654H41.7638ZM37.4044 22.0392V23.4026H36.2235V22.0392H37.4044ZM41.1296 23.156V24.0843H36.2239V23.156H41.1296ZM37.47 17.6516V19.5952H36.2964V17.6516H37.47ZM41.0932 19.1383V20.0593H36.2964V19.1383H41.0932Z" fill="var(--fill-0, white)"/>
<path id="Vector_16" d="M50.5043 20.4582V21.3792H44.3156V20.4582H50.5043ZM47.6321 18.1013V18.2463C47.6321 19.2326 46.8812 20.1174 44.9348 20.2769L44.5338 19.3631C46.1814 19.2398 46.5896 18.6452 46.5896 18.2463V18.1013H47.6321ZM49.9503 17.6806V18.5944H44.8765V17.6806H49.9503ZM49.7826 22.982C49.7826 23.7797 48.8787 24.2293 47.3915 24.2293C45.9044 24.2293 45.0004 23.7797 45.0004 22.982C45.0004 22.1842 45.9044 21.7346 47.3915 21.7346C48.8787 21.7346 49.7826 22.1842 49.7826 22.982ZM46.1887 22.982C46.1887 23.2503 46.5605 23.3518 47.3915 23.3518C48.2226 23.3518 48.5944 23.2503 48.5944 22.982C48.5944 22.7136 48.2226 22.6121 47.3915 22.6121C46.5605 22.6121 46.1887 22.7064 46.1887 22.982ZM47.9966 20.8426V22.0464H46.8229V20.8426H47.9966ZM48.2299 18.1013V18.2463C48.2299 18.6524 48.6308 19.2398 50.2856 19.3631L49.8847 20.2769C47.9383 20.1174 47.1874 19.2398 47.1874 18.2463V18.1013H48.2299Z" fill="var(--fill-0, white)"/>
</g>
</svg>
