<svg preserveAspectRatio="none" width="100%" height="100%" overflow="visible" style="display: block;" viewBox="0 0 41.5224 36.712" fill="none" xmlns="http://www.w3.org/2000/svg">
<g id="Group">
<path id="Vector" d="M29.973 16.5804C29.9821 16.615 29.9431 16.658 29.884 16.658L26.8175 16.6547C26.81 16.6266 26.8507 16.5787 26.9064 16.5787L29.973 16.5804Z" fill="var(--fill-0, #9EC9FD)"/>
<g id="Group_2">
<path id="Vector_2" d="M36.8516 12.9609C36.9132 13.1738 36.835 13.3777 36.7669 13.6039C36.3695 14.927 35.3371 15.8292 34.0087 16.2213C32.8474 16.5638 31.6862 16.6546 30.4767 16.6018L29.9729 16.5803L26.9064 16.5787C26.8507 16.5787 26.8099 16.6266 26.8174 16.6546L23.5788 16.6629H17.8489C17.7516 16.6629 17.597 16.7124 17.5064 16.7388C17.4574 16.6926 17.3776 16.6629 17.2737 16.6629L14.7749 16.667C14.5787 16.667 14.3301 16.6398 14.1955 16.7446C14.2055 16.7017 14.1672 16.6777 14.1057 16.6744C13.0317 16.6092 11.9785 16.6629 10.9153 16.6183L9.24862 16.5482C6.90528 16.4491 4.84872 15.2688 4.57607 12.8602L4.4572 11.8053C4.36576 10.998 4.35578 10.1685 4.72403 9.49246C5.42645 9.99844 7.40819 10.3204 8.35002 10.4359C13.8638 11.1086 23.2122 11.0401 28.8823 10.8024C31.0087 10.7124 34.5075 10.4937 36.3762 9.6658C36.5208 9.60224 36.6397 9.52548 36.7727 9.55354C37.1883 10.6027 37.0977 11.7913 36.8575 12.8924C36.8533 12.9122 36.8458 12.9419 36.8516 12.9609Z" fill="var(--fill-0, #6DA6F5)"/>
<g id="Group_3">
<path id="Vector_3" d="M6.57116 3.22338C6.55953 3.16808 6.56618 3.08636 6.49303 3.055C6.11979 3.5585 5.61188 3.83584 4.97513 3.8053L4.98843 8.75453C4.83132 8.96501 4.83465 9.2894 4.72409 9.49245C4.35584 10.1685 4.36581 10.998 4.45725 11.8053L4.57613 12.8602C3.9294 12.563 3.33089 12.3071 2.82132 11.6856C2.38574 11.1557 1.94267 10.4739 1.93852 9.70706L1.90277 3.81191C1.08065 3.78467 0.450551 3.33151 0.162101 2.64559C0.361605 2.75619 -0.0307526 1.68397 0.264347 1.36866C0.694112 1.25641 0.766432 0.92046 1.4913 0.92046H5.39243C6.09069 0.919634 6.14057 1.70791 6.71165 1.66829C6.76901 2.18418 6.70084 2.71823 6.57116 3.22338Z" fill="var(--fill-0, #ACB9D1)"/>
<path id="Vector_4" d="M6.71169 1.66835C6.14061 1.70797 6.09073 0.919689 5.39247 0.919689H1.49134C0.766473 0.920514 0.694153 1.25646 0.264388 1.36872C-0.0307113 1.68403 0.361646 2.75625 0.162142 2.64564C-0.0780935 2.0728 -0.0706121 1.47355 0.315095 0.861085C0.576113 0.445898 1.14304 0.0620775 1.76649 0.0331878C2.83549 -0.0179883 3.89619 -0.000654055 4.97767 0.0232831C5.67759 0.0389661 6.17303 0.497898 6.63023 0.921339L6.71169 1.66835Z" fill="var(--fill-0, #BBDAFD)"/>
</g>
<g id="Group_4">
<path id="Vector_5" d="M39.5524 3.83086C39.5366 3.99182 39.6048 4.09747 39.6048 4.2122C39.5815 4.2023 39.5158 4.24192 39.5158 4.303L39.5217 9.40658C39.5241 11.2225 38.3379 12.1973 36.8516 12.9608C36.8458 12.9419 36.8533 12.9121 36.8574 12.8923C37.0977 11.7912 37.1883 10.6026 36.7727 9.5535C36.6604 9.26873 36.6604 8.93774 36.4668 8.67278C36.52 8.70579 36.5308 8.63976 36.5308 8.5762L36.5341 3.80857C35.8242 3.82591 35.2523 3.48418 34.8716 2.96334C34.8524 2.80156 34.7718 2.64721 34.7868 2.4813C35.0752 1.97366 34.6097 2.15856 35.1135 1.48254C35.3761 1.12926 35.7286 0.904742 36.2007 0.908044L40.1094 0.931982C40.4876 0.934458 40.9406 1.13339 41.205 1.36615C41.471 1.59892 41.2399 2.4359 41.4319 2.39876C41.2382 3.24316 40.4668 3.77143 39.5524 3.83086Z" fill="var(--fill-0, #ACB9D1)"/>
<path id="Vector_6" d="M41.5151 2.06859C41.4993 2.18002 41.4569 2.28898 41.432 2.39876C41.24 2.4359 41.471 1.59893 41.205 1.36616C40.9407 1.13339 40.4877 0.934461 40.1094 0.931985L36.2008 0.908047C35.7287 0.904745 35.3762 1.12926 35.1135 1.48254C34.6098 2.15856 35.0753 1.97367 34.7868 2.4813C34.6114 1.93405 34.8467 1.37854 34.8841 0.832109C35.318 0.42105 35.786 0.0174199 36.451 0.0149436L39.4386 8.41413e-05C40.5625 -0.0056938 41.3946 0.765251 41.5151 1.82096C41.437 1.80858 41.427 1.88782 41.427 1.94478C41.427 2.00173 41.437 2.0818 41.5151 2.06859Z" fill="var(--fill-0, #BBDAFD)"/>
<path id="Vector_7" d="M39.5217 9.40659L39.5151 4.30219C39.5151 4.24111 39.5808 4.20149 39.604 4.21222V9.31662C39.604 9.37853 39.5517 9.4165 39.5209 9.40659H39.5217Z" fill="var(--fill-0, #ACB9D1)"/>
<path id="Vector_8" d="M41.515 2.06856C41.4377 2.08094 41.4269 2.00252 41.4269 1.94474C41.4269 1.88696 41.4369 1.80855 41.515 1.82093C41.5234 1.89769 41.5259 1.99179 41.515 2.06856Z" fill="var(--fill-0, #BBDAFD)"/>
</g>
<path id="Vector_9" d="M36.7727 9.55351C36.6397 9.52545 36.5209 9.60221 36.3762 9.66577C34.5075 10.4937 31.0087 10.7124 28.8823 10.8024C23.2123 11.0401 13.8639 11.1086 8.35007 10.4359C7.40824 10.3203 5.4265 9.99841 4.72408 9.49243C4.83464 9.28937 4.83132 8.96499 4.98843 8.7545C5.52875 8.03226 6.232 7.48501 7.17632 7.31002C7.66427 7.22005 8.1647 7.0401 8.63187 7.00213L11.6211 6.75781L13.3801 6.70498C18.3444 6.55558 23.2538 6.57126 28.2182 6.71489L30.2215 6.77267L31.3063 6.87502C31.8491 6.92619 32.4335 6.94931 32.8791 7.01534C34.2623 7.22087 35.5599 7.42722 36.4668 8.67278C36.6605 8.93774 36.6605 9.26874 36.7727 9.55351Z" fill="var(--fill-0, #BBDAFD)"/>
<path id="Vector_10" d="M33.0454 6.85107C32.9856 6.90225 32.9299 6.95673 32.8792 7.01533C32.4336 6.9493 31.8492 6.92619 31.3064 6.87501L30.2216 6.77266C30.2274 6.67361 30.3363 6.60592 30.3629 6.5209C30.3637 6.59849 30.4003 6.64967 30.4485 6.67691C30.4485 6.65875 32.8542 6.9039 33.0454 6.85107Z" fill="var(--fill-0, #6DA6F5)"/>
</g>
<g id="Group_5">
<path id="Vector_11" d="M22.9919 26.9129L23.0842 26.9361L23.3294 26.9872L29.6088 28.3228L36.2473 29.7499C36.3454 30.0471 36.1783 30.3582 36.3662 30.5976C36.3844 30.6389 36.3662 30.7156 36.3662 30.7627L34.5299 30.7569C34.4318 30.7569 34.3512 30.7528 34.3163 30.8221C34.3005 30.8543 34.2946 30.8989 34.2905 30.9393L34.2074 30.9443L22.3385 30.9245L22.3336 32.5778C21.2795 32.6339 20.203 32.4655 19.1781 32.6603C18.9769 32.1337 19.1614 31.5386 19.0891 30.9278L7.20783 30.9336L7.13135 30.87C7.16377 30.823 7.12304 30.766 7.05072 30.7652L5.06067 30.7635V30.5984C5.33748 30.2699 4.85867 29.825 5.50207 29.6888L17.8489 27.0689C18.2753 26.9781 18.6801 26.8296 18.9894 27.031C19.0767 27.0879 19.1099 27.2357 19.1107 27.3843L19.1332 30.8931C19.7965 31.1672 21.829 31.3207 22.3244 30.7577L22.3626 27.4651C22.3651 27.2687 22.3967 27.0995 22.5547 27.0013C22.6727 26.9278 22.839 26.8774 22.9911 26.9162L22.9919 26.9129Z" fill="var(--fill-0, #ACB9D1)"/>
<path id="Vector_12" d="M20.2528 22.1816L20.2337 26.2146L18.6078 26.1511C18.6576 26.3318 18.8671 26.6315 18.7341 26.7495C18.5662 26.908 17.9037 26.8634 17.8496 27.0665L5.50284 29.6863C4.86027 29.8225 5.33908 30.2683 5.06144 30.596C5.08804 30.2939 5.03317 29.9513 5.08638 29.6253C5.20026 28.9278 5.7755 28.5506 6.44799 28.4119L17.7657 26.0776C17.9843 26.0322 18.3168 26.0685 18.4166 25.9158L18.4548 22.5217C18.4573 22.2765 18.8862 22.1304 19.094 22.1205C19.4714 22.1032 19.8763 22.2188 20.2528 22.18V22.1816Z" fill="var(--fill-0, #BBDAFD)"/>
<path id="Vector_13" d="M22.499 22.1561C22.6644 22.3715 21.5322 22.2188 21.3368 22.2758V26.1313C20.9952 26.1899 20.6818 26.0661 20.3327 26.1998C21.2545 26.2634 22.1507 26.2164 23.0916 26.0958C22.9046 26.284 22.7209 26.2428 22.7276 26.5135C22.7317 26.6852 22.7874 26.8239 22.9927 26.9122C22.8406 26.8734 22.6735 26.9237 22.5563 26.9972C22.3984 27.0954 22.3668 27.2646 22.3643 27.4611L22.326 30.7537C21.8306 31.3175 19.7982 31.1631 19.1348 30.8891L19.1124 27.3802C19.1115 27.2316 19.0775 27.0839 18.991 27.0269C18.6818 26.8255 18.277 26.9749 17.8505 27.0649C17.9054 26.8618 18.5671 26.9064 18.735 26.7479C18.868 26.6299 18.6593 26.3294 18.6086 26.1495L20.2346 26.2131L20.2537 22.18C20.9777 22.1058 21.7226 22.2948 22.4167 22.1033C22.4482 22.1148 22.4757 22.1322 22.4998 22.1553L22.499 22.1561Z" fill="var(--fill-0, #DBECFE)"/>
<path id="Vector_14" d="M23.5821 18.8833C23.4807 19.0632 23.3386 19.2035 23.1599 19.3034L22.3327 19.3009H19.095L18.2679 19.3034C18.0891 19.2035 17.9478 19.0632 17.8456 18.8833L17.8489 16.6629H23.5788L23.5821 18.8833Z" fill="var(--fill-0, #576379)"/>
<path id="Vector_15" d="M36.3661 30.5967C36.1782 30.3574 36.3453 30.0462 36.2472 29.749L29.6087 28.3219L23.3293 26.9863C23.3019 26.9492 23.2711 26.9005 23.2088 26.8865C23.1714 26.8774 23.1207 26.9038 23.0841 26.9352L22.9918 26.9121C22.7873 26.8237 22.7308 26.6851 22.7267 26.5134C22.72 26.2426 22.9037 26.2839 23.0907 26.0957C22.1498 26.2162 21.2537 26.2625 20.3318 26.1997C20.6809 26.066 20.9943 26.1898 21.3359 26.1312V22.2757C21.5321 22.2187 22.6643 22.3714 22.4981 22.156C22.8123 22.1808 23.0833 22.3995 23.0816 22.7602L23.0733 26.0726C23.4565 26.0074 23.7632 26.0891 24.149 26.1684L35.3478 28.4705C35.8133 28.5662 36.2406 29.0227 36.3228 29.4461C36.4051 29.8695 36.3952 30.2352 36.3644 30.5959L36.3661 30.5967Z" fill="var(--fill-0, #BBDAFD)"/>
<path id="Vector_16" d="M22.3337 19.3009L22.3312 21.8572C22.3486 21.9637 22.3736 22.0446 22.4168 22.104C21.7227 22.2955 20.9779 22.1073 20.2538 22.1808C19.8781 22.2196 19.4724 22.104 19.095 22.1214V19.3009H22.3337Z" fill="var(--fill-0, #ACB9D1)"/>
<path id="Vector_17" d="M22.3335 32.5753C22.3335 32.6017 22.3277 32.6323 22.3335 32.6579H19.178C20.2029 32.4631 21.2794 32.6315 22.3335 32.5753Z" fill="var(--fill-0, #DBECFE)"/>
<path id="Vector_18" d="M36.3661 30.7619V30.8444L34.9596 30.8419C34.7219 30.9137 34.5016 30.9418 34.2905 30.9377C34.2946 30.8972 34.3004 30.8527 34.3162 30.8205C34.3511 30.7511 34.4326 30.7553 34.5299 30.7553L36.3661 30.761V30.7619Z" fill="var(--fill-0, #DBECFE)"/>
<path id="Vector_19" d="M7.13129 30.8676L5.06144 30.8436V30.7611L7.05149 30.7627C7.12298 30.7627 7.16371 30.8205 7.13212 30.8676H7.13129Z" fill="var(--fill-0, #DBECFE)"/>
<path id="Vector_20" d="M23.3294 26.9872L23.0842 26.9361C23.1208 26.9047 23.1715 26.8783 23.2089 26.8874C23.2712 26.9022 23.302 26.9501 23.3294 26.9872Z" fill="var(--fill-0, #DBECFE)"/>
<g id="Group_6">
<path id="Vector_21" d="M37.6654 32.5349C37.5365 31.7945 37.1109 31.1622 36.4492 30.9261C36.4118 30.9129 36.3661 30.8857 36.3661 30.8444L34.9596 30.8419C34.7219 30.9138 34.5016 30.9418 34.2904 30.9377L34.2073 30.9418C33.0693 31.6145 32.6736 33.078 33.3935 34.1692C34.1491 35.3149 35.657 35.5815 36.7934 34.7115C37.4401 34.2171 37.8059 33.3388 37.6654 32.5349ZM35.3453 34.0834C34.7277 34.0834 34.2273 33.5865 34.2273 32.9732C34.2273 32.3599 34.7277 31.863 35.3453 31.863C35.9629 31.863 36.4634 32.3599 36.4634 32.9732C36.4634 33.5865 35.9629 34.0834 35.3453 34.0834Z" fill="var(--fill-0, #576379)"/>
<path id="Vector_22" d="M36.4492 30.9262C36.4118 30.913 36.3661 30.8849 36.3661 30.8436C36.4068 30.8436 36.4409 30.8915 36.4492 30.9262Z" fill="var(--fill-0, #ACB9D1)"/>
<path id="Vector_23" d="M35.3453 34.0834C35.9628 34.0834 36.4634 33.5864 36.4634 32.9732C36.4634 32.3601 35.9628 31.863 35.3453 31.863C34.7278 31.863 34.2272 32.3601 34.2272 32.9732C34.2272 33.5864 34.7278 34.0834 35.3453 34.0834Z" fill="var(--fill-0, #ACB9D1)"/>
</g>
<g id="Group_7">
<path id="Vector_24" d="M8.04072 31.7566C7.82874 31.4016 7.49291 31.168 7.20779 30.9311L7.13131 30.8676L5.06146 30.8445C4.16785 31.3133 3.61007 32.1016 3.72062 33.1656C3.84116 34.3261 4.79213 35.1705 5.93429 35.2225C7.10554 35.2762 8.10639 34.4796 8.34662 33.2712C8.44305 32.7834 8.30423 32.1973 8.04072 31.7566ZM6.04069 34.0975C5.41724 34.0975 4.91266 33.5964 4.91266 32.9774C4.91266 32.3583 5.41724 31.8581 6.04069 31.8581C6.66414 31.8581 7.16789 32.3591 7.16789 32.9774C7.16789 33.5956 6.66331 34.0975 6.04069 34.0975Z" fill="var(--fill-0, #576379)"/>
<path id="Vector_25" d="M6.04067 34.0974C6.66367 34.0974 7.1687 33.5959 7.1687 32.9773C7.1687 32.3587 6.66367 31.8572 6.04067 31.8572C5.41768 31.8572 4.91265 32.3587 4.91265 32.9773C4.91265 33.5959 5.41768 34.0974 6.04067 34.0974Z" fill="var(--fill-0, #ACB9D1)"/>
</g>
<g id="Group_8">
<path id="Vector_26" d="M22.6826 33.1382C22.5538 32.9665 22.3751 32.8517 22.3327 32.6578H19.178C18.828 33.0771 18.5038 33.5525 18.4324 34.1344C18.2761 35.4039 19.1331 36.581 20.4091 36.699C21.0874 36.7609 21.7383 36.5983 22.2229 36.1922C23.1598 35.4089 23.4175 34.113 22.6826 33.1382ZM20.7491 35.6384C20.1381 35.6384 19.6435 35.1472 19.6435 34.5406C19.6435 33.9339 20.1381 33.4427 20.7491 33.4427C21.3601 33.4427 21.8547 33.9347 21.8547 34.5406C21.8547 35.1464 21.3601 35.6384 20.7491 35.6384Z" fill="var(--fill-0, #576379)"/>
<path id="Vector_27" d="M20.7492 35.6384C21.3597 35.6384 21.8547 35.1469 21.8547 34.5406C21.8547 33.9343 21.3597 33.4428 20.7492 33.4428C20.1386 33.4428 19.6436 33.9343 19.6436 34.5406C19.6436 35.1469 20.1386 35.6384 20.7492 35.6384Z" fill="var(--fill-0, #ACB9D1)"/>
</g>
</g>
</g>
</svg>
