<svg preserveAspectRatio="none" width="100%" height="100%" overflow="visible" style="display: block;" viewBox="0 0 41.2319 22.2985" fill="none" xmlns="http://www.w3.org/2000/svg">
<g id="Group">
<path id="Vector" d="M20.3055 21.8721C14.4816 24.2126 3.84035 16.3991 1.08417 11.0701C-1.57614 6.58129 0.832537 0.268103 6.4168 0.0760673C12.2407 -0.0919641 16.4589 4.997 19.3109 9.59386C21.384 13.0145 24.0923 19.4597 20.4374 21.8001L20.3055 21.8721Z" fill="var(--fill-0, #434A56)"/>
<path id="Vector_2" d="M20.76 20.0478C19.2741 21.9202 8.42912 17.0833 9.69936 14.2267C12.6113 10.6141 21.515 17.7074 20.808 19.9638L20.76 20.0598V20.0478Z" fill="var(--fill-0, #2D3139)"/>
<path id="Vector_3" d="M20.9263 21.8001C26.7503 24.1406 37.3915 16.3271 40.1477 10.9981C42.808 6.50927 40.3994 0.196088 34.8151 0.00405192C28.9912 -0.16398 24.773 4.92498 21.921 9.52184C19.8478 12.9425 17.1396 19.3877 20.7945 21.7281L20.9263 21.8001Z" fill="var(--fill-0, #434A56)"/>
<path id="Vector_4" d="M19.8504 19.7477C21.3364 21.62 32.1813 16.7831 30.9111 13.9266C27.9991 10.3139 19.0955 17.4073 19.8025 19.6637L19.8504 19.7597V19.7477Z" fill="var(--fill-0, #2D3139)"/>
</g>
</svg>
