<svg preserveAspectRatio="none" width="100%" height="100%" overflow="visible" style="display: block;" viewBox="0 0 69.5479 104.298" fill="none" xmlns="http://www.w3.org/2000/svg">
<path id="Union" d="M13.6689 13.5548C13.6689 15.2806 15.068 16.6797 16.7939 16.6797H26.6798C28.4056 16.6797 29.8047 15.2806 29.8047 13.5548V9.15813C29.8047 7.43228 31.2038 6.0332 32.9296 6.0332H40.3487C42.0746 6.0332 43.4736 7.43228 43.4736 9.15813V13.5548C43.4736 15.2806 44.8727 16.6797 46.5986 16.6797H52.754C54.4798 16.6797 55.8789 15.2806 55.8789 13.5548V3.12493C55.8789 1.39908 57.278 0 59.0038 0H66.4229C68.1488 0 69.5479 1.39908 69.5479 3.12493V101.173C69.5479 102.899 68.1488 104.298 66.4229 104.298H3.12492C1.39908 104.298 0 102.899 0 101.173V3.12492C0 1.39907 1.39908 0 3.12493 0H10.544C12.2699 0 13.6689 1.39908 13.6689 3.12493V13.5548Z" fill="var(--fill-0, #2D3139)"/>
</svg>
