<svg preserveAspectRatio="none" width="100%" height="100%" overflow="visible" style="display: block;" viewBox="0 0 47.4658 53.9873" fill="none" xmlns="http://www.w3.org/2000/svg">
<path id="Subtract" d="M42.166 0C45.0928 0.000102204 47.4658 2.16525 47.4658 4.83594V43.1035C47.4658 49.1142 42.1252 53.9873 35.5381 53.9873H11.9268C5.33964 53.9873 0 49.1142 0 43.1035V4.83594C0 2.16528 2.37208 0.000158125 5.29883 0C7.87379 0 9.59797 1.67593 9.97559 3.89746C9.34742 3.60117 8.50076 3.91748 8.33887 4.84668C8.28365 5.16404 8.25492 5.49057 8.25488 5.82324V11.5566C8.25488 12.7587 9.25738 13.7333 10.4932 13.7334H11.9053C11.9124 13.7335 11.9196 13.7344 11.9268 13.7344H35.5381C35.5452 13.7344 35.5525 13.7335 35.5596 13.7334H37.1211C38.3569 13.7333 39.3593 12.7587 39.3594 11.5566V5.82324C39.3593 5.49057 39.3306 5.16404 39.2754 4.84668C39.1548 4.15429 38.6537 3.80303 38.1465 3.79102C38.425 1.62251 39.6323 0 42.166 0Z" fill="var(--fill-0, #434A56)"/>
</svg>
