<svg preserveAspectRatio="none" width="100%" height="100%" overflow="visible" style="display: block;" viewBox="0 0 37.1731 24.8299" fill="none" xmlns="http://www.w3.org/2000/svg">
<g id="Group">
<path id="Vector" d="M24.4416 15.9591C24.4268 15.9344 24.4203 15.9049 24.4203 15.8755C24.435 15.9003 24.4416 15.9282 24.4416 15.9591Z" fill="var(--fill-0, #9EC9FD)"/>
<path id="Vector_2" d="M36.995 10.8969C36.744 13.1927 34.7523 15.5653 32.0972 15.5945L24.6454 15.6758C24.484 15.6789 24.4188 15.7818 24.4205 15.8755C24.3406 15.7127 24.0211 15.6559 23.8158 15.6559L12.8988 15.6513C10.2258 15.6497 7.52177 15.7879 4.77378 15.5653C1.77316 15.3226 -0.0865421 12.4817 0.00310172 9.86037C0.0405891 8.76546 0.117192 7.87018 0.0927436 6.92422C0.0552561 5.51604 -0.0164579 4.09404 0.901169 2.77953C1.84161 1.43277 3.38512 0.0768005 5.3198 0.0721936L31.1258 1.84764e-05C34.3823 -0.00765973 36.938 2.37873 37.1091 5.39165C37.2183 7.29585 37.1923 9.11251 36.995 10.8969Z" fill="var(--fill-0, #BBDAFD)"/>
<path id="Vector_3" d="M12.7933 24.8299C12.9989 21.7401 12.96 18.5907 12.9552 15.4497L23.7943 15.4625C23.9982 15.4625 24.3153 15.6204 24.3946 16.0728C24.4092 16.1411 24.4157 16.2179 24.4157 16.3032L24.4238 24.4159L12.7933 24.8299Z" fill="var(--fill-0, #ACB9D1)"/>
</g>
</svg>
