<svg preserveAspectRatio="none" width="100%" height="100%" overflow="visible" style="display: block;" viewBox="0 0 24.8592 44.9432" fill="none" xmlns="http://www.w3.org/2000/svg">
<g id="Mask group">
<mask id="mask0_172_2310" style="mask-type:alpha" maskUnits="userSpaceOnUse" x="0" y="0" width="25" height="45">
<path id="Vector 349" d="M11.4283 43.4945C21.6613 47.5881 23.8678 41.9658 24.7257 39.4315L24.8591 23.6662L14.6624 0.000109979H0.592112C-1.32657 13.0058 1.19532 39.4009 11.4283 43.4945Z" fill="var(--fill-0, #D9D9D9)"/>
</mask>
<g mask="url(#mask0_172_2310)">
<g id="Mask group_2">
<g id="Vector">
<path d="M25.1082 61.5101C24.4146 62.1416 22.9914 62.4399 22.2717 61.9982C21.6014 61.5544 21.5224 60.7098 21.2643 59.8408C21.1533 59.3027 20.9837 58.6911 21.4505 58.1483C22.3342 57.1567 24.4971 57.0525 24.8395 58.0798C25.1446 58.9891 25.9611 60.549 25.1461 61.4748L25.0964 61.5077L25.1082 61.5101Z" fill="#262628"/>
<path d="M11.9986 10.3919L8.36077 11.3682L9.11003 14.1605L12.7479 13.1842L11.9986 10.3919Z" fill="#C2C8D6"/>
<path d="M10.2451 4.12125L6.76324 5.05572C5.91515 5.28333 5.41212 6.15543 5.63972 7.00361L6.88041 11.6273C7.108 12.4755 7.98002 12.9786 8.82812 12.751L12.3099 11.8165C13.158 11.5889 13.6611 10.7168 13.4335 9.8686L12.1928 5.24488C11.9652 4.3967 11.0932 3.89364 10.2451 4.12125Z" fill="var(--fill-0, #1474B8)"/>
<path d="M16.8261 20.7131L16.8283 20.7626C16.9358 20.9871 17.0552 21.214 17.1627 21.4385C17.2539 21.6229 17.3451 21.8072 17.4363 21.9915C17.7474 22.6013 18.0514 23.2157 18.3601 23.8373C18.9097 24.9315 19.4545 26.0493 19.9756 27.1929C20.4033 28.1333 20.8167 29.0831 21.2089 30.047C21.7551 31.3982 22.2398 32.7799 22.6489 34.2014C22.7118 34.4044 22.7699 34.6004 22.821 34.8011C23.207 36.0951 23.5481 37.429 23.8444 38.7722C24.217 40.4623 24.5094 42.1852 24.7309 43.9242C25.277 48.1292 25.4008 52.3889 25.1059 56.3852C25.1416 56.8712 24.9134 57.2971 24.53 57.6422C23.8649 58.2243 22.7244 58.5804 21.6491 58.5877C21.4887 58.5917 21.3402 58.5675 21.206 58.534C20.6782 58.4138 20.3353 58.0799 20.101 57.7251C19.269 56.4812 18.4491 55.1783 17.6718 53.8166C17.3581 53.28 17.0538 52.7268 16.7566 52.169C15.8066 50.3916 14.9065 48.52 14.0941 46.5497C13.8512 45.9662 13.6132 45.3591 13.387 44.7544C13.2307 44.3481 13.0815 43.9371 12.9394 43.5214C12.4568 42.1893 12.038 40.815 11.6571 39.4054C11.4736 38.742 11.3136 38.0833 11.1561 37.4129C10.1205 32.9606 9.58322 28.3218 9.55141 24.0624C9.55446 23.8973 9.5504 23.7369 9.54635 23.5766C9.56296 22.9847 9.39272 22.5264 9.02423 22.1075C8.9139 21.9867 8.79179 21.8636 8.6484 21.7545C7.74623 20.9442 6.12875 19.7606 5.38214 18.9698C5.01378 18.5202 5.87341 18.2172 6.31818 17.8724C7.43257 16.9832 7.71889 15.6118 8.36217 14.5956C8.50026 14.2802 8.73716 14.0217 9.03751 13.8131C9.73285 13.3231 10.7739 13.0633 11.6943 12.8831C12.046 12.8138 12.3762 12.7893 12.6826 12.8212C12.982 12.8578 13.2552 12.9321 13.4975 13.0675C14.8157 13.6437 16.0121 15.1463 18.0197 14.9612C18.5576 14.9116 18.8256 15.1014 18.692 15.4852C18.3076 16.6157 17.4485 18.4776 17.0195 19.5866C16.9741 19.7185 16.9288 19.8504 16.8905 19.9775C16.8307 20.1801 16.7969 20.3757 16.8055 20.5739C16.8029 20.6163 16.8075 20.6541 16.8168 20.6989L16.8261 20.7131Z" fill="#23AFFF"/>
<path d="M10.5916 4.64971C10.549 4.49096 9.65782 4.59217 8.6011 4.87578C7.54438 5.15938 6.72226 5.51799 6.76485 5.67674C6.80745 5.83549 7.69864 5.73427 8.75536 5.45066C9.81208 5.16706 10.6342 4.80846 10.5916 4.64971Z" fill="#23AFFF"/>
<path d="M19.9873 27.195C18.9882 30.4029 16.7248 34.8438 11.6639 39.4311C11.4804 38.7676 11.3204 38.1089 11.1629 37.4385C17.0095 31.5881 18.1549 26.0718 18.3717 23.8393C18.9213 24.9335 19.4661 26.0513 19.9873 27.195Z" fill="#1994E1"/>
<path d="M22.6527 34.2084C21.5542 37.5126 19.1751 41.979 14.0883 46.5732C13.8455 45.9897 13.6075 45.3826 13.3813 44.7779C19.9614 38.3409 21.0432 32.2348 21.2127 30.054C21.7542 31.3982 22.2398 32.7799 22.6489 34.2014L22.6527 34.2084Z" fill="#1994E1"/>
<path d="M23.847 38.7907C24.2196 40.4808 24.5119 42.2037 24.7334 43.9428C23.5236 46.8008 21.4057 50.2588 17.6673 53.8398C17.3535 53.3032 17.0493 52.75 16.7521 52.1922C22.1993 46.5547 23.5301 41.2728 23.847 38.7907Z" fill="#1994E1"/>
<path d="M16.8615 19.2613L8.76458 21.4344C8.27023 21.5671 7.97702 22.0754 8.10969 22.5698L8.35871 23.4978C8.49137 23.9922 8.99966 24.2855 9.494 24.1528L17.5909 21.9797C18.0852 21.847 18.3784 21.3387 18.2458 20.8443L17.9968 19.9163C17.8641 19.4219 17.3558 19.1287 16.8615 19.2613Z" fill="#1994E1"/>
<path d="M15.7073 21.5944C15.9776 21.4158 16.052 21.0518 15.8734 20.7815C15.6948 20.5111 15.3308 20.4367 15.0605 20.6153C14.7902 20.794 14.7158 21.1579 14.8944 21.4283C15.073 21.6987 15.437 21.773 15.7073 21.5944Z" fill="var(--fill-0, #1474B8)"/>
<path d="M17.2825 21.1746C17.5528 20.996 17.6272 20.632 17.4486 20.3617C17.27 20.0913 16.9061 20.017 16.6357 20.1956C16.3654 20.3742 16.291 20.7382 16.4696 21.0085C16.6482 21.2789 17.0122 21.3533 17.2825 21.1746Z" fill="var(--fill-0, #1474B8)"/>
</g>
</g>
</g>
</g>
</svg>
