<svg preserveAspectRatio="none" width="100%" height="100%" overflow="visible" style="display: block;" viewBox="0 0 42.9578 48.4863" fill="none" xmlns="http://www.w3.org/2000/svg">
<g id="Group">
<path id="Vector" d="M42.922 42.363C43.0644 43.6169 42.7657 44.8746 42.2376 46.086C41.949 46.7443 40.6824 48.1034 40.1531 48.2573C39.8632 48.3374 36.2158 47.9657 36.2158 47.9932C36.1427 47.9519 36.0873 47.8744 36.086 47.7567C36.7477 45.658 37.059 43.4592 36.9632 41.2617C36.9607 41.1866 37.0111 41.1103 37.0124 41.0352C37.0981 33.2712 36.8271 25.5172 36.0545 17.7457C35.9928 17.1212 35.8932 16.6557 35.747 16.1501C35.7331 16.1038 35.7798 16.0262 35.7533 15.9674C35.7533 15.9636 35.7508 15.9586 35.747 15.9548C35.7445 15.9498 35.7407 15.9448 35.7357 15.9411C35.7243 15.9298 35.7092 15.9198 35.689 15.9123C35.6802 15.9073 35.6689 15.9035 35.6563 15.901C37.0262 16.1338 38.4063 16.5693 39.5342 17.4829C41.0718 18.7281 41.9213 20.4063 42.196 22.3548C42.3737 23.6087 42.593 25.9852 42.6447 27.2554L42.7304 29.3191L42.8489 32.3151C42.9034 33.6958 42.8958 35.0631 42.8883 36.4017L42.8879 36.4699C42.8842 37.3484 43.0001 38.2532 42.9409 39.1317C42.8842 39.9602 42.5275 40.8024 42.7934 41.6321C42.7707 41.8837 42.893 42.1177 42.922 42.363Z" fill="var(--fill-0, #6DA6F5)"/>
<path id="Vector_2" d="M7.67111 48.1159L3.13902 48.4863C0.846506 47.0722 0.246597 45.3364 0.0146994 42.7572C0.211308 41.9913 0.314653 41.1816 0.227692 40.3994L0.104182 39.2669L0.123086 38.8651C0.164677 37.9904 -0.178129 37.0168 0.129387 36.2283C0.0159592 36.0619 0.0764539 35.8454 0.0827555 35.6051L0.184842 31.6856L0.310873 28.4356L0.412958 26.034L0.694008 22.6989C0.973798 19.3826 3.32176 16.7445 6.46625 16.1125C6.6074 16.2114 6.77376 16.2114 7.01196 16.2865C6.64143 18.6054 6.50657 20.8455 6.34651 23.2158C5.94573 29.1451 5.88902 35.0032 5.9785 40.8875C5.97976 40.9651 6.04908 41.0452 6.04404 41.1215C5.89658 43.4004 6.16251 45.7419 6.97793 47.9382C7.23378 48.0871 7.51357 47.9244 7.67111 48.1159Z" fill="var(--fill-0, #6DA6F5)"/>
<path id="Vector_3" d="M37.0124 41.0352C37.0111 41.1103 36.9607 41.1866 36.9633 41.2617C37.059 43.4592 36.7477 45.658 36.0861 47.7567C36.0457 47.8856 35.8806 47.9883 35.8718 48.1384L32.8345 48.0508C25.3079 47.8331 17.8645 47.8093 10.3379 48.0358L7.67104 48.1159C7.5135 47.9244 7.23371 48.0871 6.97786 47.9382C6.16244 45.7419 5.89651 43.4004 6.04397 41.1215C6.04901 41.0452 5.97969 40.9651 5.97843 40.8875C5.88895 35.0032 5.94566 29.1452 6.34644 23.2158C6.5065 20.8455 6.64136 18.6054 7.01189 16.2865C6.77369 16.2114 6.60733 16.2114 6.46618 16.1125C7.33201 15.9398 8.21423 15.6045 9.17711 15.642C9.79214 15.6658 10.3492 15.5481 10.9466 15.5369L16.4277 15.4368C16.6546 15.433 16.8436 15.4167 16.9873 15.5056L26.0452 15.3842C26.7471 15.3742 27.4441 15.4693 28.1902 15.4756L31.9611 15.5106C32.1627 15.5119 32.3997 15.6783 32.5874 15.652C33.6852 15.4993 34.6392 15.7296 35.6147 15.8935C35.6298 15.896 35.6437 15.8985 35.6563 15.9011C35.6689 15.9036 35.6803 15.9073 35.6891 15.9123C35.7092 15.9198 35.7244 15.9298 35.7357 15.9411C35.7407 15.9449 35.7445 15.9499 35.7471 15.9549C35.7508 15.9586 35.7521 15.9624 35.7534 15.9674C35.7798 16.0262 35.7332 16.1038 35.7471 16.1501C35.8932 16.6557 35.9928 17.1212 36.0546 17.7457C36.8271 25.5172 37.0981 33.2712 37.0124 41.0352Z" fill="var(--fill-0, #BBDAFD)"/>
<g id="Group_2">
<path id="Vector_4" d="M26.0389 13.0056C26.0275 12.9854 26.0225 12.9615 26.0225 12.9376C26.0339 12.9577 26.0389 12.9804 26.0389 13.0056Z" fill="var(--fill-0, #9EC9FD)"/>
<path id="Vector_5" d="M35.7456 8.88034C35.5516 10.7513 34.0115 12.6847 31.9584 12.7085L26.1962 12.7749C26.0715 12.7774 26.0211 12.8612 26.0223 12.9375C25.9606 12.8049 25.7135 12.7586 25.5547 12.7586L17.1132 12.7548C15.0462 12.7536 12.9554 12.8662 10.8305 12.6847C8.51026 12.487 7.07224 10.1718 7.14156 8.03561C7.17055 7.14332 7.22978 6.41373 7.21088 5.64283C7.18189 4.49525 7.12644 3.33641 7.83599 2.26517C8.56319 1.16764 9.75671 0.062612 11.2527 0.0588577L31.2073 3.94711e-05C33.7254 -0.00621778 35.7015 1.93854 35.8339 4.39388C35.9183 5.94568 35.8981 7.42615 35.7456 8.88034Z" fill="var(--fill-0, #BBDAFD)"/>
<path id="Vector_6" d="M16.9873 15.5056C17.1474 14.5995 17.1171 13.676 17.1133 12.7549L25.5549 12.7587C25.7137 12.7587 25.9607 12.805 26.0225 12.9376C26.0338 12.9576 26.0389 12.9802 26.0389 13.0052L26.0452 15.3842L16.9873 15.5056Z" fill="var(--fill-0, #ACB9D1)"/>
</g>
</g>
</svg>
