<svg preserveAspectRatio="none" width="100%" height="100%" overflow="visible" style="display: block;" viewBox="0 0 62.9534 55.6604" fill="none" xmlns="http://www.w3.org/2000/svg">
<g id="Group">
<path id="Vector" d="M45.4432 25.1381C45.4571 25.1907 45.3978 25.2558 45.3083 25.2558L40.659 25.2508C40.6477 25.2082 40.7095 25.1356 40.7939 25.1356L45.4432 25.1381Z" fill="var(--fill-0, #9EC9FD)"/>
<g id="Group_2">
<path id="Vector_2" d="M55.8721 19.6506C55.9654 19.9735 55.8469 20.2826 55.7436 20.6255C55.1411 22.6316 53.5758 23.9994 51.5618 24.5938C49.8012 25.1132 48.0405 25.2508 46.2068 25.1707L45.443 25.1382L40.7937 25.1357C40.7093 25.1357 40.6475 25.2083 40.6589 25.2508L35.7487 25.2634H27.0613C26.9139 25.2634 26.6795 25.3384 26.5421 25.3785C26.4677 25.3084 26.3467 25.2634 26.1892 25.2634L22.4007 25.2696C22.1033 25.2696 21.7264 25.2283 21.5222 25.3872C21.5374 25.3222 21.4794 25.2859 21.3861 25.2809C19.7578 25.182 18.161 25.2634 16.549 25.1958L14.0221 25.0894C10.4693 24.9392 7.35128 23.1496 6.93789 19.4979L6.75767 17.8986C6.61903 16.6746 6.60391 15.4169 7.16223 14.392C8.2272 15.1591 11.2318 15.6472 12.6597 15.8224C21.0194 16.8423 35.1929 16.7385 43.7895 16.378C47.0134 16.2416 52.318 15.91 55.1512 14.6548C55.3705 14.5584 55.5507 14.4421 55.7524 14.4846C56.3825 16.0752 56.2452 17.8773 55.8809 19.5467C55.8746 19.5768 55.8633 19.6218 55.8721 19.6506Z" fill="var(--fill-0, #6DA6F5)"/>
<g id="Group_3">
<path id="Vector_3" d="M9.96277 4.88715C9.94513 4.80331 9.95521 4.67941 9.8443 4.63186C9.27842 5.39524 8.50837 5.81573 7.54297 5.76942L7.56313 13.2731C7.32493 13.5922 7.32998 14.0841 7.16235 14.3919C6.60404 15.4169 6.61916 16.6746 6.75779 17.8985L6.93802 19.4978C5.95749 19.0473 5.05007 18.6594 4.2775 17.717C3.61709 16.9136 2.94534 15.8799 2.93904 14.7173L2.88485 5.77944C1.6384 5.73814 0.683081 5.05109 0.245752 4.01114C0.548227 4.17883 -0.0466411 2.5532 0.40077 2.07514C1.05235 1.90495 1.162 1.39561 2.26099 1.39561H8.17565C9.23431 1.39435 9.30993 2.58949 10.1758 2.52942C10.2627 3.31158 10.1594 4.12127 9.96277 4.88715Z" fill="var(--fill-0, #ACB9D1)"/>
<path id="Vector_4" d="M10.1758 2.52944C9.31001 2.58951 9.23439 1.39437 8.17572 1.39437H2.26107C1.16208 1.39563 1.05243 1.90497 0.400849 2.07516C-0.0465626 2.55322 0.548305 4.17885 0.24583 4.01116C-0.118401 3.14265 -0.107058 2.2341 0.477728 1.30552C0.873466 0.676042 1.733 0.094118 2.67824 0.0503172C4.299 -0.0272727 5.90716 -0.000991637 7.54683 0.0353004C8.60801 0.059078 9.35916 0.754881 10.0523 1.39688L10.1758 2.52944Z" fill="var(--fill-0, #BBDAFD)"/>
</g>
<g id="Group_4">
<path id="Vector_5" d="M59.967 5.80826C59.9431 6.05229 60.0464 6.21248 60.0464 6.38643C60.0111 6.37141 59.9116 6.43148 59.9116 6.52409L59.9204 14.2618C59.9242 17.015 58.1257 18.493 55.8723 19.6506C55.8634 19.6218 55.8748 19.5767 55.8811 19.5467C56.2453 17.8772 56.3827 16.0752 55.7525 14.4846C55.5824 14.0528 55.5824 13.551 55.2887 13.1493C55.3694 13.1993 55.3858 13.0992 55.3858 13.0028L55.3908 5.77447C54.3145 5.80075 53.4474 5.28265 52.8702 4.49298C52.8412 4.2477 52.719 4.01368 52.7417 3.76214C53.179 2.99249 52.4732 3.27282 53.237 2.24788C53.6352 1.71226 54.1696 1.37186 54.8854 1.37687L60.8114 1.41316C61.3849 1.41691 62.0718 1.71852 62.4725 2.07142C62.8758 2.42433 62.5255 3.69331 62.8166 3.63699C62.5229 4.91723 61.3534 5.71815 59.967 5.80826Z" fill="var(--fill-0, #ACB9D1)"/>
<path id="Vector_6" d="M62.9426 3.13637C62.9187 3.30531 62.8544 3.4705 62.8166 3.63695C62.5255 3.69326 62.8758 2.42429 62.4725 2.07138C62.0717 1.71847 61.3849 1.41687 60.8114 1.41312L54.8854 1.37682C54.1696 1.37182 53.6352 1.71221 53.2369 2.24783C52.4732 3.27277 53.179 2.99245 52.7416 3.76209C52.4757 2.93238 52.8324 2.09015 52.8891 1.26169C53.547 0.638468 54.2565 0.0265093 55.2648 0.0227549L59.7943 0.000225915C61.4983 -0.00853424 62.7599 1.16032 62.9426 2.76093C62.8241 2.74216 62.809 2.8623 62.809 2.94865C62.809 3.035 62.8241 3.15639 62.9426 3.13637Z" fill="var(--fill-0, #BBDAFD)"/>
<path id="Vector_7" d="M59.9202 14.2618L59.9101 6.52279C59.9101 6.43018 60.0096 6.37011 60.0449 6.38638V14.1253C60.0449 14.2192 59.9655 14.2768 59.9189 14.2618H59.9202Z" fill="var(--fill-0, #ACB9D1)"/>
<path id="Vector_8" d="M62.9424 3.13636C62.8252 3.15513 62.8088 3.03624 62.8088 2.94864C62.8088 2.86104 62.8239 2.74215 62.9424 2.76092C62.955 2.87731 62.9588 3.01998 62.9424 3.13636Z" fill="var(--fill-0, #BBDAFD)"/>
</g>
<path id="Vector_9" d="M55.7525 14.4846C55.5508 14.442 55.3706 14.5584 55.1513 14.6548C52.3181 15.91 47.0135 16.2416 43.7896 16.378C35.193 16.7384 21.0195 16.8423 12.6598 15.8224C11.2319 15.6472 8.22732 15.1591 7.16236 14.392C7.32998 14.0841 7.32494 13.5923 7.56314 13.2732C8.38234 12.1782 9.44857 11.3484 10.8803 11.0831C11.6201 10.9467 12.3788 10.6739 13.0871 10.6163L17.6192 10.2459L20.286 10.1658C27.8126 9.93931 35.256 9.96309 42.7826 10.1808L45.82 10.2684L47.4647 10.4236C48.2877 10.5012 49.1737 10.5363 49.8492 10.6364C51.9464 10.948 53.9137 11.2608 55.2887 13.1493C55.5824 13.551 55.5824 14.0528 55.7525 14.4846Z" fill="var(--fill-0, #BBDAFD)"/>
<path id="Vector_10" d="M50.1011 10.3873C50.0104 10.4649 49.9259 10.5475 49.8491 10.6363C49.1735 10.5362 48.2875 10.5012 47.4645 10.4236L45.8198 10.2684C45.8287 10.1182 45.9938 10.0156 46.0341 9.88672C46.0354 10.0044 46.0908 10.0819 46.1639 10.1232C46.1639 10.0957 49.8113 10.4674 50.1011 10.3873Z" fill="var(--fill-0, #6DA6F5)"/>
</g>
<g id="Group_5">
<path id="Vector_11" d="M34.859 40.8038L34.9989 40.8389L35.3707 40.9164L44.8911 42.9413L54.956 45.1051C55.1047 45.5556 54.8514 46.0274 55.1362 46.3903C55.1639 46.4529 55.1362 46.5692 55.1362 46.6406L52.3522 46.6318C52.2034 46.6318 52.0812 46.6256 52.0283 46.7307C52.0043 46.7795 51.9955 46.8471 51.9892 46.9084L51.8632 46.9159L33.8684 46.8859L33.8608 49.3925C32.2628 49.4776 30.6306 49.2223 29.0767 49.5177C28.7717 48.7192 29.0515 47.8169 28.9418 46.8909L10.9282 46.8996L10.8122 46.8033C10.8614 46.7319 10.7996 46.6456 10.69 46.6443L7.67277 46.6418V46.3915C8.09246 45.8935 7.36652 45.2189 8.342 45.0124L27.0614 41.0403C27.708 40.9027 28.3218 40.6774 28.7906 40.9828C28.9229 41.0691 28.9733 41.2931 28.9746 41.5184L29.0086 46.8383C30.0144 47.2538 33.0958 47.4866 33.847 46.6331L33.9049 41.641C33.9087 41.3432 33.9566 41.0866 34.1961 40.9377C34.375 40.8263 34.6271 40.75 34.8577 40.8088L34.859 40.8038Z" fill="var(--fill-0, #ACB9D1)"/>
<path id="Vector_12" d="M30.7063 33.6305L30.6773 39.7451L28.2122 39.6487C28.2878 39.9228 28.6054 40.3771 28.4037 40.556C28.1491 40.7963 27.1447 40.7287 27.0628 41.0366L8.34332 45.0087C7.36909 45.2152 8.09504 45.891 7.67409 46.3878C7.71442 45.9297 7.63124 45.4104 7.7119 44.9161C7.88456 43.8586 8.7567 43.2867 9.77629 43.0764L26.9355 39.5373C27.2669 39.4685 27.7711 39.5236 27.9223 39.292L27.9803 34.1461C27.984 33.7744 28.6344 33.5529 28.9494 33.5379C29.5216 33.5116 30.1354 33.6868 30.7063 33.628V33.6305Z" fill="var(--fill-0, #BBDAFD)"/>
<path id="Vector_13" d="M34.1116 33.5917C34.3624 33.9183 32.6459 33.6868 32.3497 33.7731V39.6187C31.8317 39.7075 31.3566 39.5198 30.8273 39.7225C32.225 39.8189 33.5836 39.7476 35.0102 39.5649C34.7267 39.8502 34.4481 39.7876 34.4582 40.1981C34.4645 40.4584 34.549 40.6686 34.8603 40.8026C34.6296 40.7437 34.3763 40.8201 34.1986 40.9314C33.9591 41.0804 33.9113 41.3369 33.9075 41.6348L33.8495 46.6268C33.0984 47.4815 30.0169 47.2475 29.0112 46.832L28.9771 41.5121C28.9759 41.2869 28.9242 41.0628 28.7931 40.9765C28.3243 40.6711 27.7105 40.8977 27.064 41.0341C27.1472 40.7262 28.1504 40.7938 28.4049 40.5535C28.6066 40.3745 28.2903 39.919 28.2134 39.6462L30.6785 39.7426L30.7075 33.628C31.8053 33.5154 32.9345 33.8019 33.9869 33.5116C34.0348 33.5291 34.0764 33.5554 34.1129 33.5904L34.1116 33.5917Z" fill="var(--fill-0, #DBECFE)"/>
<path id="Vector_14" d="M35.7538 28.6296C35.6001 28.9024 35.3845 29.1152 35.1136 29.2666L33.8596 29.2629H28.9506L27.6966 29.2666C27.4257 29.1152 27.2114 28.9024 27.0564 28.6296L27.0614 25.2632H35.7488L35.7538 28.6296Z" fill="var(--fill-0, #576379)"/>
<path id="Vector_15" d="M55.1362 46.389C54.8514 46.0261 55.1047 45.5543 54.956 45.1038L44.8911 42.94L35.3707 40.9152C35.3291 40.8589 35.2825 40.785 35.188 40.7638C35.1313 40.75 35.0544 40.79 34.9989 40.8376L34.859 40.8026C34.549 40.6686 34.4633 40.4584 34.457 40.1981C34.4469 39.7876 34.7254 39.8502 35.009 39.5649C33.5823 39.7476 32.2237 39.8177 30.826 39.7225C31.3554 39.5198 31.8305 39.7075 32.3485 39.6187V33.7731C32.6459 33.6868 34.3625 33.9183 34.1104 33.5917C34.5868 33.6292 34.9977 33.9609 34.9951 34.5077L34.9825 39.5298C35.5635 39.431 36.0286 39.5549 36.6134 39.675L53.5923 43.1653C54.2981 43.3105 54.9459 44.0025 55.0707 44.6445C55.1954 45.2865 55.1803 45.8409 55.1337 46.3878L55.1362 46.389Z" fill="var(--fill-0, #BBDAFD)"/>
<path id="Vector_16" d="M33.8608 29.2629L33.8571 33.1386C33.8835 33.3001 33.9213 33.4227 33.9869 33.5128C32.9345 33.8032 31.8053 33.5178 30.7075 33.6292C30.1379 33.688 29.5228 33.5128 28.9507 33.5391V29.2629H33.8608Z" fill="var(--fill-0, #ACB9D1)"/>
<path id="Vector_17" d="M33.8608 49.3887C33.8608 49.4288 33.852 49.4751 33.8608 49.5139H29.0767C30.6306 49.2186 32.2627 49.4738 33.8608 49.3887Z" fill="var(--fill-0, #DBECFE)"/>
<path id="Vector_18" d="M55.1361 46.6393V46.7644L53.0036 46.7607C52.6432 46.8696 52.3092 46.9121 51.9891 46.9059C51.9954 46.8445 52.0042 46.777 52.0282 46.7282C52.0811 46.623 52.2046 46.6293 52.3521 46.6293L55.1361 46.6381V46.6393Z" fill="var(--fill-0, #DBECFE)"/>
<path id="Vector_19" d="M10.8123 46.7995L7.67409 46.7632V46.6381L10.6913 46.6406C10.7997 46.6406 10.8614 46.7282 10.8135 46.7995H10.8123Z" fill="var(--fill-0, #DBECFE)"/>
<path id="Vector_20" d="M35.3706 40.9164L34.9988 40.8388C35.0543 40.7913 35.1312 40.7512 35.1879 40.765C35.2824 40.7875 35.329 40.8601 35.3706 40.9164Z" fill="var(--fill-0, #DBECFE)"/>
<g id="Group_6">
<path id="Vector_21" d="M57.1059 49.3274C56.9106 48.2048 56.2653 47.2462 55.2621 46.8883C55.2054 46.8683 55.1361 46.827 55.1361 46.7644L53.0036 46.7607C52.6432 46.8695 52.3092 46.9121 51.9891 46.9058L51.863 46.9121C50.1377 47.932 49.5378 50.1509 50.6292 51.8053C51.7748 53.5423 54.061 53.9465 55.7839 52.6275C56.7644 51.8779 57.3189 50.5463 57.1059 49.3274ZM53.5884 51.6751C52.652 51.6751 51.8933 50.9217 51.8933 49.9919C51.8933 49.0621 52.652 48.3087 53.5884 48.3087C54.5248 48.3087 55.2835 49.0621 55.2835 49.9919C55.2835 50.9217 54.5248 51.6751 53.5884 51.6751Z" fill="var(--fill-0, #576379)"/>
<path id="Vector_22" d="M55.2622 46.8883C55.2055 46.8683 55.1362 46.8257 55.1362 46.7631C55.1979 46.7631 55.2496 46.8357 55.2622 46.8883Z" fill="var(--fill-0, #ACB9D1)"/>
<path id="Vector_23" d="M53.5887 51.6752C54.5249 51.6752 55.2838 50.9216 55.2838 49.992C55.2838 49.0624 54.5249 48.3088 53.5887 48.3088C52.6525 48.3088 51.8935 49.0624 51.8935 49.992C51.8935 50.9216 52.6525 51.6752 53.5887 51.6752Z" fill="var(--fill-0, #ACB9D1)"/>
</g>
<g id="Group_7">
<path id="Vector_24" d="M12.1909 48.1473C11.8695 47.6091 11.3604 47.255 10.9281 46.8958L10.8121 46.7994L7.67395 46.7644C6.31912 47.4752 5.47345 48.6704 5.64107 50.2835C5.82381 52.043 7.26561 53.3233 8.99728 53.4021C10.7731 53.4834 12.2905 52.2758 12.6547 50.4437C12.8009 49.7041 12.5904 48.8155 12.1909 48.1473ZM9.1586 51.6964C8.21337 51.6964 7.44836 50.9367 7.44836 49.9982C7.44836 49.0596 8.21337 48.3012 9.1586 48.3012C10.1038 48.3012 10.8676 49.0608 10.8676 49.9982C10.8676 50.9355 10.1026 51.6964 9.1586 51.6964Z" fill="var(--fill-0, #576379)"/>
<path id="Vector_25" d="M9.15878 51.6964C10.1033 51.6964 10.869 50.9361 10.869 49.9982C10.869 49.0603 10.1033 48.3 9.15878 48.3C8.21424 48.3 7.44853 49.0603 7.44853 49.9982C7.44853 50.9361 8.21424 51.6964 9.15878 51.6964Z" fill="var(--fill-0, #ACB9D1)"/>
</g>
<g id="Group_8">
<path id="Vector_26" d="M34.3903 50.2422C34.195 49.9819 33.924 49.808 33.8597 49.5139H29.0768C28.5462 50.1496 28.0547 50.8705 27.9463 51.7527C27.7094 53.6775 29.0088 55.462 30.9433 55.641C31.9718 55.7349 32.9586 55.4883 33.6934 54.8726C35.1137 53.685 35.5044 51.7202 34.3903 50.2422ZM31.4588 54.0329C30.5325 54.0329 29.7826 53.2883 29.7826 52.3685C29.7826 51.4486 30.5325 50.704 31.4588 50.704C32.3851 50.704 33.135 51.4499 33.135 52.3685C33.135 53.287 32.3851 54.0329 31.4588 54.0329Z" fill="var(--fill-0, #576379)"/>
<path id="Vector_27" d="M31.4587 54.0328C32.3844 54.0328 33.1349 53.2877 33.1349 52.3684C33.1349 51.4492 32.3844 50.704 31.4587 50.704C30.5329 50.704 29.7825 51.4492 29.7825 52.3684C29.7825 53.2877 30.5329 54.0328 31.4587 54.0328Z" fill="var(--fill-0, #ACB9D1)"/>
</g>
</g>
</g>
</svg>
