<svg preserveAspectRatio="none" width="100%" height="100%" overflow="visible" style="display: block;" viewBox="0 0 15.2284 4.4399" fill="none" xmlns="http://www.w3.org/2000/svg">
<g id="Group">
<path id="Vector" fill-rule="evenodd" clip-rule="evenodd" d="M2.08341 1.14012C3.23401 1.14012 4.16672 2.06799 4.16672 3.21222C4.16672 3.67153 4.01647 4.09619 3.76172 4.43986H0.405099C0.15076 4.09619 0.000100708 3.67153 0.000100708 3.21222C0.000100708 2.06759 0.932812 1.14012 2.08341 1.14012ZM2.08341 2.01481C1.42367 2.01481 0.887858 2.54261 0.879353 3.19691V3.21222C0.879353 3.33551 0.897982 3.45396 0.932407 3.56557H3.23482C3.26925 3.45437 3.28788 3.33551 3.28788 3.21222V3.19691C3.27937 2.54784 2.75206 2.02287 2.09921 2.01481H2.08382H2.08341Z" fill="var(--fill-0, white)"/>
<path id="Vector_2" d="M1.30693 0.000415499C1.93711 0.000415499 2.45146 0.495576 2.47738 1.11604C2.3498 1.09227 2.21777 1.08019 2.08331 1.08019C2.06792 1.08019 2.05253 1.08019 2.03714 1.08059C1.9529 0.809841 1.75972 0.601138 1.51915 0.489535C1.69208 0.63055 1.82533 0.823538 1.89175 1.05319C1.89499 1.06487 1.89823 1.07615 1.90106 1.08784C1.70788 1.10395 1.52239 1.14545 1.34743 1.20911C1.06839 0.991546 0.874393 0.653515 0.874393 0.273179C0.874393 0.20388 0.880467 0.136192 0.891807 0.0701162C1.01695 0.0249915 1.1668 1.2207e-05 1.30734 1.2207e-05L1.30693 0.000415499Z" fill="var(--fill-0, white)"/>
<path id="Vector_3" d="M2.83501 0.000726318C2.97392 0.000726318 3.13673 0.0248979 3.26026 0.0688138C3.27484 0.142141 3.28253 0.21829 3.28253 0.296049C3.28253 0.664702 3.08084 0.993466 2.81192 1.207C2.7208 1.17437 2.62684 1.14737 2.53045 1.12723C2.526 0.978963 2.49481 0.837145 2.44216 0.706202C2.55232 0.550281 2.6969 0.429006 2.85931 0.346815C2.68556 0.385493 2.52275 0.470912 2.39194 0.597422C2.32228 0.463659 2.22873 0.343998 2.11695 0.244482C2.31499 0.0917834 2.56366 0.000726318 2.83379 0.000726318H2.83501Z" fill="var(--fill-0, white)"/>
<path id="Vector_4" d="M6.11475 1.35272V1.03967H4.85926V0.464729H6.46669C6.66717 0.464729 6.82957 0.62629 6.82957 0.825725V1.27334C6.82957 1.45586 6.82107 1.63031 6.80446 1.79268H7.30747V0.762875C7.30747 0.563038 7.47028 0.401068 7.67116 0.401068C7.87204 0.401068 8.03484 0.563038 8.03484 0.762875V4.1162H7.30747V2.37568H6.69228C6.4428 3.22821 5.84826 3.71169 4.85034 3.922V3.31121C5.42828 3.15247 5.79399 2.83135 5.97705 2.31605C5.81505 2.35553 5.59473 2.37165 5.3327 2.37165H4.85034V1.79671H5.3493C5.6652 1.79671 5.92318 1.78463 6.09774 1.72943C6.11029 1.61057 6.11434 1.48366 6.11434 1.35272H6.11475Z" fill="var(--fill-0, white)"/>
<path id="Vector_5" d="M13.6408 2.52999H12.3323C12.1225 2.52999 11.9528 2.36077 11.9528 2.15247V1.22581H13.2625V0.967949H11.9528V0.4611H13.606C13.8065 0.4611 13.9689 0.622665 13.9689 0.8221V1.74111H12.6551V2.01065H13.736C14.077 2.01065 14.2682 1.97479 14.4136 1.88777V0.762875C14.4136 0.563038 14.5764 0.401068 14.7772 0.401068C14.9781 0.401068 15.1409 0.563038 15.1409 0.762875V2.66899H14.4132V2.38333C14.2718 2.48648 14.0308 2.52999 13.64 2.52999H13.6408ZM12.1273 3.45383C12.1273 3.21975 12.248 3.04932 12.4517 2.92644C12.7263 2.76407 13.1585 2.70041 13.6781 2.70041C14.1977 2.70041 14.6302 2.76367 14.9044 2.92644C15.1122 3.04932 15.2284 3.21975 15.2284 3.45383C15.2284 3.68792 15.1122 3.85834 14.9044 3.97317C14.6298 4.13554 14.1936 4.1992 13.6781 4.1992C13.1625 4.1992 12.7259 4.13594 12.4517 3.97317C12.248 3.85834 12.1273 3.68389 12.1273 3.45383ZM12.8422 3.45383C12.8422 3.50138 12.8713 3.54127 12.9296 3.57269C13.0503 3.63595 13.312 3.66375 13.6781 3.66375C14.0442 3.66375 14.3018 3.63595 14.4265 3.57269C14.4804 3.54086 14.5055 3.50138 14.5055 3.45383C14.5055 3.40226 14.4804 3.36278 14.4265 3.33901C14.3018 3.27172 14.0442 3.24392 13.6781 3.24392C13.312 3.24392 13.0503 3.27172 12.9296 3.33901C12.8713 3.36278 12.8422 3.40226 12.8422 3.45383Z" fill="var(--fill-0, white)"/>
<path id="Vector_6" d="M10.0878 0.46347C10.2611 0.46347 10.4016 0.603276 10.4016 0.775717V2.94372C10.4016 3.46708 9.95695 3.89133 9.40818 3.89133C8.8594 3.89133 8.41471 3.46708 8.41431 2.94372V0.784983C8.41431 0.607707 8.55889 0.463874 8.73709 0.463874C8.91529 0.463874 9.05988 0.607707 9.05988 0.784983V1.79304H9.77389V0.775717C9.77389 0.603276 9.91442 0.46347 10.0878 0.46347ZM9.05988 2.37563V2.94009C9.05988 3.15201 9.18543 3.29666 9.40777 3.29666C9.63011 3.29666 9.77389 3.15201 9.77389 2.94009V2.37563H9.05988Z" fill="var(--fill-0, white)"/>
<path id="Vector_7" d="M10.8462 0.760014V1.78983H10.4015V2.37282H10.8462V4.11334H11.574V0.760014C11.574 0.560176 11.4112 0.398212 11.2103 0.398212C11.0094 0.398212 10.8466 0.560176 10.8466 0.760014H10.8462Z" fill="var(--fill-0, white)"/>
</g>
</svg>
