<svg preserveAspectRatio="none" width="100%" height="100%" overflow="visible" style="display: block;" viewBox="0 0 35.3524 8.6224" fill="none" xmlns="http://www.w3.org/2000/svg">
<g id="Group">
<path id="Vector" d="M3.49509 2.8407V3.36447H0.05625V2.8407H3.49509ZM3.21564 1.2287C3.21564 1.88139 2.59194 2.30444 1.77385 2.30444C0.955751 2.30444 0.332054 1.88139 0.332054 1.2287C0.332054 0.576003 0.955751 0.161017 1.77385 0.161017C2.59194 0.161017 3.21564 0.584061 3.21564 1.2287ZM0.980051 1.2287C0.980051 1.59534 1.29595 1.78873 1.77385 1.78873C2.25175 1.78873 2.56764 1.59534 2.56764 1.2287C2.56764 0.862061 2.25175 0.672699 1.77385 0.672699C1.29595 0.672699 0.980051 0.870119 0.980051 1.2287ZM2.09785 2.1191V2.93699H1.4458V2.1191H2.09785Z" fill="var(--fill-0, white)"/>
<path id="Vector_2" d="M7.22121 1.3619V1.86955H3.78237V1.3619H7.22121ZM6.83241 2.03877V3.10645H4.80742V3.35624H4.15133V2.6552H6.17632V2.52224H4.14728V2.03877H6.83241ZM6.93366 3.25592V3.74343H4.15133V3.25592H6.93366ZM4.83577 0.028302V0.954969H4.18373V0.028302H4.83577ZM6.83241 0.67294V1.18059H4.18373V0.67294H6.83241Z" fill="var(--fill-0, white)"/>
<path id="Vector_3" d="M9.37158 0.201462V0.616447H9.93858V0.201462H10.5866V1.99839H8.72358V0.201462H9.37158ZM11.6517 2.305V3.74334H9.13668V2.305H11.6517ZM9.37158 1.49074H9.93858V1.10798H9.37158V1.49074ZM9.78063 2.80862V3.23569H11.0159V2.80862H9.78063ZM11.6517 1.2207e-05V2.14746H10.9997V1.2207e-05H11.6517ZM12.1256 0.801782V1.32958H11.4735V0.801782H12.1256Z" fill="var(--fill-0, white)"/>
<path id="Vector_4" d="M1.99664 5.17712C1.99664 6.38179 1.73339 7.34472 0.356398 8.07396L0 7.58243C1.0935 6.99822 1.36079 6.34955 1.36079 5.26173V5.17712H1.99664ZM1.45394 6.59532L0.1053 6.71216L0.0323998 6.17228L1.45394 6.09976V6.59532ZM1.75769 5.17712V5.6888H0.238949V5.17712H1.75769ZM2.96459 6.2448V6.76857H1.99259V6.2448H2.96459ZM3.26429 4.83466V8.61425H2.60819V4.83466H3.26429Z" fill="var(--fill-0, white)"/>
<path id="Vector_5" d="M4.56023 5.12484V6.00316H5.13938V5.12484H5.78332V7.76382H3.91223V5.12484H4.56023ZM4.56023 7.24851H5.13938V6.50315H4.56023V7.24851ZM6.53662 6.11597V6.63571H5.56462V6.11597H6.53662ZM7.00237 4.82669V8.6224H6.35032V4.82669H7.00237Z" fill="var(--fill-0, white)"/>
<path id="Vector_6" d="M9.46479 5.04819V6.25689H8.347V6.7726H7.70305V5.78147H8.81679V5.55987H7.699V5.04819H9.46479ZM8.0473 6.48251C8.81679 6.48251 9.28254 6.47042 9.79689 6.38582L9.86979 6.8975C9.33924 6.99016 8.83704 7.00225 8.0473 7.00225H7.70305V6.48251H8.0473ZM10.7122 7.89709C10.7122 8.35639 10.2059 8.62231 9.39594 8.62231C8.58595 8.62231 8.08375 8.35639 8.08375 7.89709C8.08375 7.43779 8.58595 7.17187 9.39594 7.17187C10.2059 7.17187 10.7122 7.43779 10.7122 7.89709ZM8.73174 7.89709C8.73174 8.06228 8.94234 8.12271 9.39594 8.12271C9.84954 8.12271 10.0601 8.06228 10.0601 7.89709C10.0601 7.7319 9.84954 7.67146 9.39594 7.67146C8.94234 7.67146 8.73174 7.7319 8.73174 7.89709ZM10.6879 4.83466V7.11103H10.0318V4.83466H10.6879Z" fill="var(--fill-0, white)"/>
<path id="Vector_7" d="M13.3567 6.44232C13.3567 7.2884 12.9234 7.8162 12.3402 7.8162C11.757 7.8162 11.3236 7.2884 11.3236 6.44232C11.3236 5.59623 11.757 5.07649 12.3402 5.07649C12.9234 5.07649 13.3567 5.60429 13.3567 6.44232ZM11.9514 6.44232C11.9514 6.97817 12.1053 7.22394 12.3402 7.22394C12.5751 7.22394 12.729 6.97817 12.729 6.44232C12.729 5.90646 12.5751 5.66875 12.3402 5.66875C12.1053 5.66875 11.9514 5.91452 11.9514 6.44232ZM14.4097 4.82669V8.6224H13.7536V4.82669H14.4097Z" fill="var(--fill-0, white)"/>
<path id="Vector_8" d="M18.0709 5.20944C18.0709 6.37785 17.6699 7.34884 16.3861 7.99348L16.0216 7.50194C16.9895 6.99832 17.431 6.36174 17.431 5.32629V5.20944H18.0709ZM17.7671 5.20944V5.72919H16.2484V5.20944H17.7671ZM19.0996 4.82669V8.60628H18.4435V4.82669H19.0996ZM19.5856 6.22475V6.75658H18.9335V6.22475H19.5856Z" fill="var(--fill-0, white)"/>
<path id="Vector_9" d="M21.1572 5.45915V5.66866C21.1572 6.64367 20.902 7.56228 20.1811 7.94504L19.764 7.44947C20.4363 7.12312 20.6469 6.37776 20.6469 5.66866V5.45915H21.1572ZM22.0239 5.18115V5.70089H19.9179V5.18115H22.0239ZM21.3111 5.45915V5.66866C21.3111 6.26495 21.5419 7.01031 22.2021 7.34875L21.8254 7.84834C21.1005 7.48573 20.8048 6.54295 20.8048 5.66866V5.45915H21.3111ZM22.8339 5.85399V6.38582H21.8619V5.85399H22.8339ZM22.8339 6.63964V7.17147H21.8619V6.63964H22.8339ZM23.0404 4.83466V8.61425H22.3884V4.83466H23.0404Z" fill="var(--fill-0, white)"/>
<path id="Vector_10" d="M25.527 4.94787C25.527 5.98735 24.9114 6.58767 23.7409 6.80523L23.5101 6.27744C24.4618 6.12433 24.802 5.72949 24.802 5.34271V4.94787H25.527ZM25.2273 4.94787V5.45955H23.7085V4.94787H25.2273ZM26.5557 6.83344V7.93738H24.6481V8.32013H24.0001V7.46196H25.9117V7.33706H23.9961V6.83344H26.5557ZM26.6529 8.07074V8.57839H24.0001V8.07074H26.6529ZM26.5557 4.83103V6.69645H25.9036V4.83103H26.5557ZM27.0295 5.52804V6.05584H26.3775V5.52804H27.0295Z" fill="var(--fill-0, white)"/>
<path id="Vector_11" d="M30.0914 6.47486C30.0914 7.35721 29.7674 7.88097 29.2572 7.88097C28.7469 7.88097 28.4269 7.35721 28.4269 6.47486C28.4269 5.59251 28.7509 5.06874 29.2572 5.06874C29.7634 5.06874 30.0914 5.59654 30.0914 6.47486ZM29.0097 6.47486C29.0097 7.03489 29.0947 7.26454 29.2567 7.26454C29.4187 7.26454 29.5078 7.03489 29.5078 6.47486C29.5078 5.91483 29.4228 5.68517 29.2567 5.68517C29.0907 5.68517 29.0097 5.91483 29.0097 6.47486ZM30.4843 5.62071V6.14045H29.9092V5.62071H30.4843ZM30.4843 6.8012V7.32094H29.9092V6.8012H30.4843ZM30.9095 4.87938V8.45349H30.302V4.87938H30.9095ZM31.6871 4.83103V8.61062H31.0675V4.83103H31.6871Z" fill="var(--fill-0, white)"/>
<path id="Vector_12" d="M33.4894 5.20935V5.4108C33.4894 6.14811 33.1978 6.84512 32.4202 7.09492L32.0922 6.58324C32.7523 6.36567 32.9589 5.86608 32.9589 5.4108V5.20935H33.4894ZM34.3116 5.03611V5.54779H32.2623V5.03611H34.3116ZM35.3524 7.88097C35.3524 8.35236 34.8461 8.62231 34.0321 8.62231C33.2181 8.62231 32.7118 8.35236 32.7118 7.88097C32.7118 7.40958 33.2181 7.13964 34.0321 7.13964C34.8461 7.13964 35.3524 7.41764 35.3524 7.88097ZM33.6231 5.20935V5.4108C33.6231 5.82982 33.8215 6.28912 34.4493 6.4946L34.1334 7.00225C33.376 6.76454 33.1006 6.10379 33.1006 5.4108V5.20935H33.6231ZM33.3635 7.88097C33.3635 8.06228 33.5781 8.1348 34.0317 8.1348C34.4853 8.1348 34.6999 8.06228 34.6999 7.88097C34.6999 7.69967 34.4853 7.62715 34.0317 7.62715C33.5781 7.62715 33.3635 7.69967 33.3635 7.88097ZM34.8583 5.70895V6.23271H34.2063V5.70895H34.8583ZM35.3402 4.83466V7.07477H34.6842V4.83466H35.3402Z" fill="var(--fill-0, white)"/>
</g>
</svg>
